<?xml version="1.0" encoding="UTF-8" standalone="no"?>
<!-- Created with Inkscape (http://www.inkscape.org/) -->

<svg
   xmlns:dc="http://purl.org/dc/elements/1.1/"
   xmlns:cc="http://creativecommons.org/ns#"
   xmlns:rdf="http://www.w3.org/1999/02/22-rdf-syntax-ns#"
   xmlns:svg="http://www.w3.org/2000/svg"
   xmlns="http://www.w3.org/2000/svg"
   xmlns:sodipodi="http://sodipodi.sourceforge.net/DTD/sodipodi-0.dtd"
   xmlns:inkscape="http://www.inkscape.org/namespaces/inkscape"
   width="75.837303mm"
   height="45.49786mm"
   viewBox="0 0 268.71485 161.21289"
   id="svg2"
   version="1.1"
   inkscape:version="0.91 r13725"
   sodipodi:docname="doppl.svg">
  <defs
     id="defs4" />
  <sodipodi:namedview
     id="base"
     pagecolor="#ffffff"
     bordercolor="#666666"
     borderopacity="1.0"
     inkscape:pageopacity="0.0"
     inkscape:pageshadow="2"
     inkscape:zoom="1.4"
     inkscape:cx="125.1728"
     inkscape:cy="56.499126"
     inkscape:document-units="px"
     inkscape:current-layer="layer1"
     showgrid="false"
     fit-margin-top="0"
     fit-margin-left="0"
     fit-margin-right="0"
     fit-margin-bottom="0"
     inkscape:window-width="1855"
     inkscape:window-height="1056"
     inkscape:window-x="1985"
     inkscape:window-y="24"
     inkscape:window-maximized="1" />
  <metadata
     id="metadata7">
    <rdf:RDF>
      <cc:Work
         rdf:about="">
        <dc:format>image/svg+xml</dc:format>
        <dc:type
           rdf:resource="http://purl.org/dc/dcmitype/StillImage" />
        <dc:title></dc:title>
      </cc:Work>
    </rdf:RDF>
  </metadata>
  <g
     inkscape:label="Layer 1"
     inkscape:groupmode="layer"
     id="layer1"
     transform="translate(-263.5,-427.64844)">
    <path
       style="fill:#ff8bf5;fill-opacity:1;stroke:#000000;stroke-width:8;stroke-miterlimit:4;stroke-dasharray:none;stroke-opacity:1"
       d="m 378.39258,431.64844 a 24.464285,24.464285 0 0 0 -21.48047,12.75976 24.464285,24.464285 0 0 0 -18.16211,-8.11718 24.464285,24.464285 0 0 0 -24.10547,20.46093 24.464285,24.464285 0 0 0 -10.17969,-2.24609 24.464285,24.464285 0 0 0 -23.96679,19.56641 24.464285,24.464285 0 0 0 -9.78321,19.53906 24.464285,24.464285 0 0 0 8.20118,18.24609 24.464285,24.464285 0 0 0 -11.41602,20.6836 24.464285,24.464285 0 0 0 24.46484,24.46484 24.464285,24.464285 0 0 0 1.15625,-0.041 c 2.50407,2.34322 5.60991,4.04242 9.07227,4.85157 a 24.464285,24.464285 0 0 0 24.41406,23.04492 24.464285,24.464285 0 0 0 22.63477,-15.21485 24.464285,24.464285 0 0 0 18.43554,8.42969 24.464285,24.464285 0 0 0 22.19532,-14.23828 24.464285,24.464285 0 0 0 18.51953,8.52344 24.464285,24.464285 0 0 0 19.5625,-9.82422 24.464285,24.464285 0 0 0 20.08008,10.53906 24.464285,24.464285 0 0 0 10.37109,-2.33594 24.464285,24.464285 0 0 0 21.41602,12.69336 24.464285,24.464285 0 0 0 24.46289,-24.46484 24.464285,24.464285 0 0 0 -0.0156,-0.44141 c 0.64702,-0.47098 1.26301,-0.97779 1.84766,-1.52148 a 24.464285,24.464285 0 0 0 20.31054,-24.10742 24.464285,24.464285 0 0 0 -3.08203,-11.83203 24.464285,24.464285 0 0 0 4.86914,-14.59766 24.464285,24.464285 0 0 0 -13.54101,-21.85742 24.464285,24.464285 0 0 0 2.46875,-10.64258 24.464285,24.464285 0 0 0 -24.46485,-24.46289 24.464285,24.464285 0 0 0 -7.55468,1.22656 24.464285,24.464285 0 0 0 -22.44532,-14.79883 24.464285,24.464285 0 0 0 -21.98242,13.79883 24.464285,24.464285 0 0 0 -21.23047,-12.37109 24.464285,24.464285 0 0 0 -18.76562,8.77734 24.464285,24.464285 0 0 0 -22.30664,-14.49023 z"
       id="rect4136"
       inkscape:connector-curvature="0" />
    <ellipse
       style="fill:#000000;fill-opacity:1;stroke:#000000;stroke-width:8;stroke-miterlimit:4;stroke-dasharray:none;stroke-opacity:1"
       id="path4228"
       cx="346.25"
       cy="477.54077"
       rx="6.9642859"
       ry="14.464286" />
    <ellipse
       style="fill:#000000;fill-opacity:1;stroke:#000000;stroke-width:8;stroke-miterlimit:4;stroke-dasharray:none;stroke-opacity:1"
       id="path4230"
       cx="428.21429"
       cy="480.04077"
       rx="6.0714288"
       ry="13.392858" />
    <ellipse
       style="fill:#000000;fill-opacity:1;stroke:#000000;stroke-width:8;stroke-miterlimit:4;stroke-dasharray:none;stroke-opacity:1"
       id="path4232"
       cx="381.78571"
       cy="527.71936"
       rx="17.857143"
       ry="4.6428571" />
  </g>
</svg>
